<svg id="_1" data-name="???? 1" xmlns="http://www.w3.org/2000/svg" viewBox="0 0 391.06 346.95"><defs><style>.cls-1{fill:#1d1d1b;}.cls-1,.cls-2,.cls-3,.cls-4,.cls-5,.cls-6,.cls-7{fill-rule:evenodd;}.cls-2{fill:#575756;}.cls-3{fill:#009640;}.cls-4{fill:#de0077;}.cls-5{fill:#db0078;}.cls-6{fill:#e3007c;}.cls-7{fill:#fff;}</style></defs><title>logo</title><path class="cls-1" d="M172.75,68.6c22.16-24.69,26.65-7,37.76.95,16.65-9.25,23.91-11.83,30.67-1.72l-1.49-3.9c-1.29-3.39-5.46-14.53-9.44-15.76-1.19-.37-3,0-5.06.67a48.71,48.71,0,0,1,7.36,2.32l-20.8,6-1.29-.81-1.64.94-2.95-2.2a37.94,37.94,0,0,1-4.06-3.55c-0.41-.41-0.89-0.93-1.43-1.51l-5.45-3.42a1.47,1.47,0,0,0-.72-0.62h2.32a13.86,13.86,0,0,0-4.31-3.19c-2.27-.77-5.4,1.08-8.28,3.5l1.86-.16c-2,2.22-4.49,3.58-7.07,5.24-0.72.79-1.32,1.47-1.74,2l-4.92,5.54-2.21-1.23c-3,1.4-6-.25-22.23-4-1.14,1.74-2.23,3.5-3.21,5.26a20,20,0,0,0-1.49,3.32,26.64,26.64,0,0,1-2.79,5.54A9.74,9.74,0,0,1,139,69.3l-2.2,2.27-3.08-.71c-0.85-.2-1.94-0.44-3.15-0.67l-2.36,3.31-14.81,1.4a33.09,33.09,0,0,0-1,9.23c4.61-2.1,11.47-2,21.22.21a4.73,4.73,0,0,0,.51-0.65c4.44-6.79-.53-2.58,11.67-19.67,11.25-1.2,17.35,2.58,25.07,6.72l2-2.14h0Zm68.88-.07a76.21,76.21,0,0,1,5.87,12.34c10.71-2.59,17.57-3.52,22.12-2A55.32,55.32,0,0,0,267.89,70L254,69.68l-2.91-3.47c-2,.45-3.75.89-4.78,1.15l-4.65,1.16h0Zm35.94,21.37a109.89,109.89,0,0,1,2,13.14,96.06,96.06,0,0,1,14.6,2.17,28.59,28.59,0,0,0,.61-8.39,15.47,15.47,0,0,1-7-5.33,75.54,75.54,0,0,0-10.14-1.59h0Zm26.59,35.38c-0.5,2.5-1.19,5.3-2.06,8.44,2.54,1.64,4.89,3,7,4.19,1.67-3.39,2.9-6.5,2.42-7.57s-3.29-2.66-4.15-3.18c-1.07-.64-2.15-1.26-3.22-1.88h0Zm10.59,42c-0.63,1.05-1.3,2.15-2,3.31q1.2,1,2.3,1.91a5.72,5.72,0,0,0,.54-2.08,6.63,6.63,0,0,0-.82-3.13h0ZM73,180.42a18.3,18.3,0,0,0,2.67-4,14.72,14.72,0,0,1-2-1.51,9.21,9.21,0,0,0-1.28,3.87,4.15,4.15,0,0,0,.64,1.62h0Zm3-35.14c2.54-1.42,5.25-2.82,7.8-4.39-1.22-3.93-2.15-6.58-2.76-9.05-2.9,1.79-5.63,3.85-6.34,5.81s0,4.92,1.31,7.63h0Zm13.78-33.56a41.67,41.67,0,0,1,14.84-2.8,59.29,59.29,0,0,1,.28-13.23,31,31,0,0,0-10,2.25L94,100.5l-5,2.18a29.25,29.25,0,0,0,.65,9h0Zm58.1-58.35c0.65-1,1.3-1.95,2-2.91a23,23,0,0,1,6.34.64c-2.08.61-4.76,1.36-8.3,2.27h0Zm41.48,290c4.43-2.61,12.59-4.08,20.73-1.89,38.6,10.39,24.85-10.21,48.86-12.71,18.36-1.91,20.27,1.75,29.3-11.11,7.85-11.18,6.62-13.22,21.26-19C323.82,293,325,293.73,329,278c1.39-5.56,2.05-10.73,5.88-14.67,22.8-23.47,18.5-8.59,17.87-38.78a13.6,13.6,0,0,1-1.15,5c-1.35,2.91-3.93,5-6.29,7.08-4.22,3.71-8.14,7.51-12,11.61-2.7,2.88-3.42,8.45-4.32,12.15-1.36,5.64-2.89,12.52-7.13,16.76-3.75,3.74-10.2,5.81-15,7.8-12.5,5.11-10.78,6.29-18,17-10.53,15.53-15.71,11.75-32.31,13.54a16.56,16.56,0,0,0-8.82,3.16c-2.14,1.7-3.84,4.1-5.76,6.06a19.91,19.91,0,0,1-12.28,6.18c-7.11.95-15.58-1-22.39-2.86-4.57-1.28-11.4-1.27-15.59,1.28l-0.3.18-0.32.14c-6.87,3.1-14.09,5.24-21.61,3.33-5.67-1.44-10.63-5-15.35-8.29-1.84-1.3-4.8-3.48-7-4a16.88,16.88,0,0,0-3.83-.28c-2.76,0-5.52.11-8.28,0.11-6.79,0-15.17,0-20.87-4.17-3.89-2.88-6.8-7.92-9.59-11.86-2-2.84-4.72-6.75-7.66-8.71a24.35,24.35,0,0,0-4.79-2.3c-3-1.17-6.14-2.21-9.19-3.33-5.39-2-10.4-4.58-13.52-9.6a30.64,30.64,0,0,1-3.23-8.08c-0.86-3.07-1.66-6.08-2.72-9.09a20.24,20.24,0,0,0-6.2-9.11c-3.59-3.13-7.77-5.64-11.45-8.77a21.36,21.36,0,0,1-6.15-8.27c-0.39,8.69-2.91,16.2,5.3,22.94s15.95,9.22,20,20.28c4.85,13.28,2.61,18.4,16.7,23.39,15.18,5.38,16.57,4.69,25.16,16.35,8.24,11.19,7.69,13.69,26.83,13.67,13.54,0,13.64-1.28,23.18,5.21C167.86,346.53,173.79,350.14,189.29,343.39Z"/><path class="cls-2" d="M179.2,301.77c2.43-1.91,17-9.26,19.15-9.2,1.35,0,16.8,6.5,19.16,7.78-15.09,2.46-23,2.62-38.31,1.43h0Zm-22.54-15.41,15.21,14.16c-14.25-1.58-25.78-6-36.63-11.18l21.43-3h0ZM224,299c1.94-1.59,5.14-4.92,6.95-6.7,7-6.86,2.92-10.62,29.44-7A122,122,0,0,1,224,299h0Zm-95-12.9c-3.08-1.52-14.79-8.05-17.21-10.35-4.51-4.3-8.69-7.72-13.81-12l20.64,4L129,286.08h0Zm166.36-28.74c-9.23,10.44-17.62,17.07-29.14,24.82l9-19.48,20.11-5.34h0ZM93,258.07L79.8,243c-3.4-5.56-5.8-11.36-9-16.2,5.4,3.42,11.1,7.88,18.43,10.5L93,258.07h0ZM302.66,231c4.55-3.5,16.21-9.45,17.39-12.38-0.1,1.26-6.63,15.79-8,18.1l-8.87,11.47c-0.73.95-.93,1.2-1.67,2.09l1.2-19.29h0ZM57.57,183.63c2.75,4.25,9.64,13.25,13.72,15.65l-2.91,21.83c-4.82-9-10.2-25.61-10.81-37.49h0Zm-7.54,15c-2.9-2.38-10.22-10.39-10.95-15.76-0.66-4.92,4.18-14.81,6.73-18.54,2,5.5,4.47,28.06,4.21,34.3h0Zm268.08-7.73c3.82-2.09,10.22-11.87,13-16.07-0.5,5.42-1.45,17-2.91,21.77-1.24,4-5.34,14.36-5.26,16.71l-4.83-22.41h0Zm21.13-2.14c-0.2-5.67-.52-29.37,3.41-34,1.52,5.06,7.71,13.81,6.54,19.5-0.88,4.27-7.26,13.6-9.94,14.47h0ZM56.64,177.67c-1.45-15.76-.43-23.9,1.75-39,15.13,29.12,1.66,23-1.75,39h0Zm274.89-9.91c-1.9-2.07-10.56-16.21-10.64-18.23,0-1,5.45-17.57,6.24-20,4.86,24.76,4,10.69,4.4,38.21h0ZM46.27,149.62c-2.92-5.2-6.78-14.53-3.87-20.68,1.4-3,8.58-10.8,11.75-12.56-0.41,6.64-1.89,11-3.27,17.27l-2.83,12.9c-2,5.06-.65,1.67-1.79,3.07h0ZM60,132.32c2.52-15.48,9-24.59,14.34-36.53l1.1,21.38L67.36,125c-2.12,2.4-5.6,5-7.37,7.27h0ZM343,120.12c-0.72-1.8-10.06-11.35-13.12-12.6l8.5,30.36a7.27,7.27,0,0,0,1.95,2.42c1.23-4.62,4.84-14.76,2.67-20.17h0Zm-34.6-30.78,4.93,7.53c5.95,10,7.66,11.88,11.25,25.46-5.8-2.68-3.11-2.61-8.29-6.84a35.63,35.63,0,0,0-7.6-5.14l-0.29-21h0ZM172.78,49.66l-1.9,2.14c-7.45-4.14-13.34-7.92-24.2-6.72-11.77,17.1-7,12.88-11.26,19.67a4.72,4.72,0,0,1-.49.65C111.64,60.06,105.42,67,107,90c-10.3.28-16.8,3.16-23.14,8.08-1.18,12.13,0,13.74,3.05,23.89-7,4.46-15.22,7.5-17.5,13.78-3,8.26,5.13,18.92,9.7,21.75-2.17,4.56-5,5.95-7.61,10-1.61,2.48-5,7.95-4.68,11.8,0.59,6.29,10.91,14.31,16.65,16.74-3.71,8.66-6.08,12.32-5.52,24,5.66,5,11.11,8.34,21.55,10.47,0.16,25.57-1.68,28.43,26.82,27.21,4.7,23.08,12.18,27.64,33.71,16.8,8.8,13.27,16.64,27.83,37.27,5.27,14.79,10.65,24.7,19.31,37.27-7.72,22.27,6.85,29.8,7.29,32.64-19.06,6.81,0.2,18.8.08,23.2-4.41,5-5.09,2.75-17.18,1.72-23.6,1.17-.88,18.81-7,21-13.18-0.34-11.8-3.25-14.52-6.72-22.77,19-14.26,20.06-21.87,1.54-37.4,16.7-28.09,9.56-23.69-10.26-36.89,6.49-24.41,3-28.31-21.79-30.67-2.52-24.88-5.49-28.54-30.9-22.17-9.19-24.1-14.71-23.41-35.7-11.32-10.72-8-15.05-25.64-36.44-.95h0ZM90.06,73.49a115.61,115.61,0,0,1,13-12.49L96.78,81.57,78.41,89.93,90.06,73.49h0Zm214,9.12c-19.77-6.53-20.75-5.5-26.34-27.08,8.58,6.56,21.53,17.83,26.34,27.08h0ZM120,48.35c7.41-6.08,12.38-7.05,21.72-11.17l-12,17.39L107.9,56.71,120,48.35h0ZM237.84,34.27c10.33,3.35,25.69,9.93,33.58,17l-20.26-.51L237.84,34.27h0Zm-43.65-6.58a1.43,1.43,0,0,0-.69-0.62c11.32-.14,27.22.93,37,5.16l-20.07,6L194.18,27.69h0Zm-46.05,6.91c24.06-6.37,8-4.78,37.25-7.39-2.3,2.66-5.32,4.09-8.31,6.26-10.84,7.87-4.13,7.07-28.94,1.13h0Zm40.61,289.86c4.27-2.61,12.15-4.08,20-1.89,37.25,10.39,24-10.21,47.15-12.71,17.72-1.91,19.56,1.75,28.28-11.11,7.58-11.18,6.38-13.22,20.52-19,13.88-5.68,15.05-5,18.86-20.69,1.34-5.56,2-10.73,5.68-14.67,22.52-24,17.64-7.85,17.21-41-0.15-12,9.5-18.41,11.69-28.37,1.91-8.69-8.23-20.18-8.78-29.13-0.75-12.06,7.71-22.19-.06-32.12-6-7.66-14-11.18-16-23.47-2.59-15.94-.51-19.95-13-26.65-13-6.95-14.18-5.57-20.86-18.67-6.44-12.64-5.77-14.74-22.11-17.39-18-2.92-15.94-5-25.87-13.72-12.53-11-11.82-7.15-30.33-4.74-13.42,1.75-19.07-7-30.32-9-9.2-1.57-19.3,9.2-27.61,10.8-18,3.46-21.42-10.12-39.12,9-1.71,1.85-2.55,3.36-4.34,5.25-13,13.8-27.21.6-37,21.78C68.25,78.51,52.36,64.84,50.22,93.19c-1.38,18.34-4.48,16.77-12.47,27.43-9.45,12.62-4,15.82-1,31.24,2.25,11.6-6.62,20.14-6.85,30.28-0.18,7.83,10.71,17.74,13.14,25.57,4.14,13.33-4.67,24.1,6.27,33.4,7.93,6.75,15.39,9.22,19.29,20.28,4.68,13.28,2.52,18.4,16.12,23.39,14.65,5.38,16,4.69,24.28,16.35,7.95,11.19,7.42,13.69,25.89,13.67,13.06,0,13.16-1.28,22.37,5.21C168.05,327.59,173.77,331.21,188.74,324.46Z"/><path class="cls-2" d="M196,23.24c78.34-9.68,129.93,57.49,142.92,142.92S274.54,313.63,196,309.08c-79.19-4.59-139.21-49.14-142.92-142.92S113.36,33.45,196,23.24Z"/><path class="cls-3" d="M386.29,166.52c2.91,0.66,9.24-6-.32-4.39C382.74,162.68,381.34,165.39,386.29,166.52Z"/><path class="cls-3" d="M377.17,182.33c3.37,2.76,4.74,0,6.24-2.4,2.15-3.47,2.85-3.54-1.58-6.14C375.4,170,366,173.69,377.17,182.33Z"/><path class="cls-3" d="M10.24,197.88c1.3-2.21,2.23-5.3,3.32-8,2.62-6.54-2.61-5.46-5.27-4.68C3.57,186.54,1.83,188.71.78,191-2.37,197.87,6.06,205,10.24,197.88Z"/><path class="cls-4" d="M193.58,142.31l-0.07,7.13c22.6,0,11.84-8,11.77-7.91l-4.4-1.12c-1.82-.19-5.3,0-7.3,0v1.91Z"/><polygon class="cls-5" points="124.14 162.58 134.58 162.77 130.41 145.29 124.14 162.58"/><path class="cls-3" d="M6.37,175.92c6.82-2.28-.21-11.41-5.25-6.57C-0.62,171-1.28,178.49,6.37,175.92Z"/><path class="cls-3" d="M19.73,177.23c1.63-.23,2.26-0.48,2.37-1.3,0.52-3.94-1.37-6-4.73-4.06C12.58,174.67,15.85,177.77,19.73,177.23Z"/><path class="cls-6" d="M361,122.61c-0.47-2.53.17-7.69-3.83-3.92S360.51,122.49,361,122.61Z"/><path class="cls-3" d="M381.33,121.31c-2.3-2.11-5.49.31-5.19,3.74,0.17,2,2.72,3.22,5.15,3.53C389.52,129.63,384.12,123.86,381.33,121.31Z"/><path class="cls-3" d="M31,103.14c27.66,5.56,87,7.66,150.27-3.44,0,0,4,8.72,13.23,8.62,16.51-.17,43.7-8.07,60-8.62C295,98.34,330.83,98.12,356,97.77c12.76-.17,24.58,7.17,10.12,14.32-11.95,5.9-5.87,4.63-4.45,11.9a14.78,14.78,0,0,1-1.79,9.93c-4.18,7.29,38.88,1.06,23.37,18.9s-28.78,14.87-18.23,25.49c6.23,6.27,4.78,8.51,2.8,12.86-3.41,7.52-4.33,7.36.15,11.27,3,2.64,5.29,7.6-10.57,12.61C327.5,224.49,57.84,232.84,33.36,229c-15.94-2.5-14.12-9.55-7.14-23.56,1.29-2.59,1.29-3.42-.5-2.64-1.63.71-3.21-.89-4.28-3-3.51-6.88-.3-5.87,1.9-8,2.43-2.4,4.73-7.86,2.66-15-2.74-9.42,9-15.62,11.09-19.27s-5.61-8-10.94-9.28c-16.85-4-10.43-8.62-3-14.69,4.1-3.34,6.88-7,3.5-7.06C17,126.45-21.36,92.6,31,103.14Z"/><path class="cls-7" d="M50.72,138.74l13.05-.94,2.1,29.11,0.6,0,10-30,13.4-1L78.38,166.7,95,203.05l-13.91,1L66.62,168.84l-0.6,0L68.62,205l-13.05.94-4.84-67.16h0Zm88,28.7q1.22,16.92-3.16,25.65t-14.34,9.45q-10.13.73-15.56-7.47T99,169q-1.29-17.86,2.91-26.71t14.33-9.58q10.39-.75,15.78,7.54t6.75,27.18h0Zm-26.4.26q1,13.57,2.83,18.87,1.84,5.13,5.27,4.89t4.6-5.6q1.07-5.52.09-19.08-1-13.4-2.83-18.87-1.93-5.21-5.36-5t-4.52,5.51q-1.07,5.52-.08,19.26h0Zm42.21-25.14-10.31.74-0.81-11.25,33.66-2.43,0.81,11.25-10.39.75,4,55.91-13,.94-4-55.91h0ZM186.24,129l13.05-.94,4.06,56.34,15.2-1.1,0.78,10.82-28.25,2L186.24,129h0Zm37.53-2.71,28.25-2,0.76,10.56-15.2,1.1,1.16,16.06,15.2-1.1,0.75,10.39-15.2,1.1,1.39,19.32,15.2-1.1,0.78,10.82-28.25,2-4.84-67.16h0Zm47.7,7.87-10.3.74-0.81-11.25L294,121.2l0.81,11.25-10.39.75,4,55.91-13,.94-4-55.91h0Zm34.83-13.82,14.08-1,19.7,66.08-13.74,1-2.59-10.78-13.4,1-1.45,11.07-13,.94,10.36-68.25h0Zm10.13,24.3q-1.07-5.28-2.3-15.11l-0.77.06-0.14,10q-0.1,4.67-.2,5.54l-1.42,21.08,9.45-.68Z"/><path class="cls-7" d="M100.81,242.39l-5.11.27-2.3-5.23-9.4.49-1.67,5.44-5,.26,7.88-23.9,5-.26,10.61,22.94h0Zm-9.16-8.84L87.95,225l-2.71,8.84,6.42-.33h0Zm23.2,8.11-1.22-23.43,10-.52a17.09,17.09,0,0,1,5.49.35,5.37,5.37,0,0,1,2.84,2.1,6.77,6.77,0,0,1,1.22,3.64,6.27,6.27,0,0,1-1.32,4.44,7.43,7.43,0,0,1-4.51,2.41,10.82,10.82,0,0,1,2.62,1.83,26.56,26.56,0,0,1,2.88,3.67l3.1,4.42-5.66.29-3.66-4.94a32.32,32.32,0,0,0-2.68-3.31,3.66,3.66,0,0,0-1.47-.9,8,8,0,0,0-2.41-.14l-1,0,0.51,9.78-4.74.25h0Zm4-13.76,3.5-.18a18.1,18.1,0,0,0,4.23-.51,2.54,2.54,0,0,0,1.27-1.06,3,3,0,0,0,.39-1.79,2.84,2.84,0,0,0-.73-1.88,2.88,2.88,0,0,0-1.83-.82q-0.58-.05-3.46.1l-3.69.19,0.31,6h0Zm36.38,11.65-1-19.47-6.94.36-0.21-4,18.59-1,0.21,4-6.9.36,1,19.47-4.74.25h0Zm23-7.46L178,227.6l8.83-.46,0.23,4.48-8.84.46h0Zm37.26-4.34,4.65,1.17a10.42,10.42,0,0,1-3.21,5.93,10,10,0,0,1-6.13,2.2,10.11,10.11,0,0,1-7.85-2.79q-3.17-3-3.46-8.57-0.3-5.85,2.55-9.25a10.37,10.37,0,0,1,7.78-3.65A9.75,9.75,0,0,1,217,215a9.26,9.26,0,0,1,2.63,4.2L215,220.52a4.84,4.84,0,0,0-5.15-3.67,5.34,5.34,0,0,0-4.13,2.09q-1.53,1.95-1.31,6.14,0.23,4.43,1.93,6.24a5.2,5.2,0,0,0,4.26,1.67,4.74,4.74,0,0,0,3.19-1.37,7,7,0,0,0,1.76-3.88h0Zm41.72,6.49-5.11.27-2.3-5.23-9.4.49-1.67,5.44-5,.26,7.88-23.9,5-.26,10.61,22.94h0Zm-9.16-8.84-3.71-8.5-2.71,8.84,6.42-.33h0Zm23.2,8.11-1.22-23.43,16.1-.84,0.21,4-11.35.59,0.29,5.56,9.82-.51,0.21,4-9.82.51,0.52,9.95-4.74.25h0Zm31.51-1.64-1.22-23.43,17.34-.9,0.21,4-12.6.66,0.27,5.2,11.71-.61,0.21,4-11.71.61,0.33,6.35,13.06-.68,0.21,4Z"/><path class="cls-7" d="M176.68,304c-50.89-2.49-98.53-20.11-127.53-63.88,37.39,36.38,74.62,52.47,127.07,53A5.43,5.43,0,1,1,176.68,304Z"/><path class="cls-7" d="M247.91,62.66c-14.14,2.27-59.58,8.45-59.29,20,0.1,4.08.73,12.43,5.57,14.26,11.6,4.38,37.72-4.33,55.84-8.16,13-2.75,15-1.55,3.72,2.88-8,3.15-20.22,6.62-28.52,8.86-26.49,7.16-43.58,8.37-45.66-17-1.67-20.4,48.91-27.7,66.4-31.16C257.24,50.11,258.51,61,247.91,62.66Z"/><path class="cls-7" d="M50.72,102.66c65.43,7.08,137.65-3.9,202-26.39,9.72-3.62,8.65-5.66-.91-3.78-76.31,15-118.93,30.32-198.51,19.59C50,91.65,46.75,93.67,46,96.59S47.43,102.23,50.72,102.66Z"/><path class="cls-7" d="M137.36,257.18h0.06C192,263,290,256.82,340.67,239.63c9.67-3.28,8,2.39-4,8.24C295.31,263.76,211.87,269.13,159.78,268c24.38,10.2,52.3,15.19,82.53,15.9,3.9,0.09,4.48.9,5.56-3.26a36.54,36.54,0,0,0,1-6.89c0.4-6.62,2.62-11.19,3.05-1.12A57.08,57.08,0,0,1,250.69,287c-0.62,3-1.18,3.43-4.37,3.35-46.7-1.16-75.56-6.93-111.35-23.73a5.93,5.93,0,0,1-1.78-.87h0l-0.08-.06,0,0,0,0-0.07-.06h0l-0.09-.07a5,5,0,0,1-1.16-1.43h0l-0.05-.1h0v0a4.3,4.3,0,0,1-.46-2v-0.19h0a4.27,4.27,0,0,1,.26-1.21h0l0-.11h0l0-.11h0v0l0.09-.2h0a4.82,4.82,0,0,1,1.09-1.41l0,0,0.05,0,0.06-.05h0a5.6,5.6,0,0,1,1.42-.86h0l0.05,0a6.29,6.29,0,0,1,2.55-.46h0.5Z"/><path class="cls-7" d="M280.39,14.59c-50.31,27.33-118.26,48-175.16,51.25C160,53.32,225.56,33.89,274.29,5.61A5.42,5.42,0,0,1,280.39,14.59Z"/></svg>